<?xml version="1.0" encoding="utf-8"?>
<!-- Generator: Adobe Illustrator 25.3.1, SVG Export Plug-In . SVG Version: 6.00 Build 0)  -->
<svg version="1.1" id="Layer_1" xmlns="http://www.w3.org/2000/svg" xmlns:xlink="http://www.w3.org/1999/xlink" x="0px" y="0px"
	 viewBox="0 0 463.8 112.7" style="enable-background:new 0 0 463.8 112.7;" xml:space="preserve">
<path d="M462.5,3.4h-30.6l-41.2,44.1h-15.3h-8.1h-313C68.3,32.8,82.4,18.1,96.4,3.4H65.8l-10,10.7L16.3,56.5L66,109.6h30.5
	C82.4,94.9,68.3,80.2,54.2,65.5h313h8.1h15.3l41.2,44.1h30.6c-16.9-17.7-33.9-35.4-50.8-53.1C428.6,38.8,445.5,21.1,462.5,3.4z"/>
<polygon points="13.5,56.5 24.6,44.7 24.6,3.4 1.2,3.4 1.2,56.5 1.2,109.6 24.6,109.6 24.6,68.3 "/>
<g>
	<rect x="105.7" y="3.4" width="23.4" height="42"/>
	<polygon points="129.1,67.6 105.7,67.6 105.7,109.6 172.4,109.6 172.4,88 129.1,88 	"/>
</g>
<g>
	<path d="M289.4,45.4c0.2-0.9,0.5-1.7,0.8-2.6c1.6-4.2,3.7-7.8,6.5-10.9c2.7-3,6-5.4,9.8-7.1c3.8-1.7,7.8-2.5,12.2-2.5
		c4.4,0,8.3,0.8,11.6,2.2c3.3,1.5,6.2,3.7,8.5,6.4l18-14.7c-2.3-2.9-4.9-5.3-7.8-7.4c-2.9-2-5.9-3.6-9.1-4.8
		c-3.2-1.2-6.4-2.1-9.6-2.6c-3.2-0.5-6.4-0.8-9.4-0.8c-8.3,0-16,1.3-22.9,3.9c-7,2.6-13.1,6.3-18.2,11.2
		c-5.1,4.9-9.1,10.7-11.9,17.6c-1.6,3.8-2.7,7.8-3.4,12H289.4z"/>
	<path d="M330.3,88.4c-3.4,1.5-7.2,2.2-11.6,2.2c-4.4,0-8.5-0.9-12.2-2.5c-3.8-1.7-7-4.1-9.8-7.1c-2.8-3.1-4.9-6.7-6.5-10.9
		c-0.3-0.8-0.6-1.7-0.8-2.6h-24.9c0.7,4.2,1.8,8.3,3.4,12c2.8,6.9,6.8,12.8,11.9,17.6c5.1,4.8,11.1,8.6,18.2,11.2
		c7,2.6,14.6,3.9,22.9,3.9c3,0,6.1-0.3,9.4-0.8c3.2-0.6,6.4-1.4,9.6-2.6c3.2-1.2,6.2-2.8,9.1-4.8c2.9-2,5.5-4.5,7.8-7.4l-18-14.7
		C336.5,84.8,333.7,86.9,330.3,88.4z"/>
</g>
<g>
	<polygon points="205.7,67.6 182.3,67.6 182.3,109.6 257.2,109.6 257.2,88 205.7,88 	"/>
	<polygon points="205.7,25 257.2,25 257.2,3.4 182.3,3.4 182.3,45.4 205.7,45.4 	"/>
</g>
<g>
	<path d="M390.6,44.4v-41h-23.4v42h22.5C390,45.1,390.3,44.8,390.6,44.4z"/>
	<path d="M390.6,68.6v41h-23.4v-42h22.5C390,67.9,390.3,68.2,390.6,68.6z"/>
</g>
</svg>
