<?xml version="1.0" encoding="utf-8"?>
<!-- Generator: Adobe Illustrator 25.3.1, SVG Export Plug-In . SVG Version: 6.00 Build 0)  -->
<svg version="1.1" id="Layer_1" xmlns="http://www.w3.org/2000/svg" xmlns:xlink="http://www.w3.org/1999/xlink" x="0px" y="0px"
	 viewBox="0 0 691.8 171.2" style="enable-background:new 0 0 691.8 171.2;" xml:space="preserve">
<path d="M583.9,99.7c0.3,0.2,0.6,0.5,0.9,0.8c19.4,20.7,38.9,41.4,58.3,62.2c1.3,1.4,2.6,1.9,4.4,1.9c13.4-0.1,26.8,0,40.2,0
	c0.8,0,1.7-0.1,3-0.2c-25.5-26.6-50.7-52.8-76-79.1C640.2,58.9,665.3,32.7,691,6c-15.1,0-29.3,0-43.5,0c-1.9,0-3.1,0.6-4.4,1.9
	c-19.4,20.7-38.9,41.4-58.3,62.2c-0.4,0.5-0.9,0.8-1.4,1.1l-0.3-0.7c0-21.4,0-42.8,0-64.3c-11.7,0-23.3,0-35,0
	c0,52.9,0,105.2,0,158.1c11.7,0,23.3,0,35,0c0-21.4,0-42.8,0-64.1L583.9,99.7z"/>
<path d="M191.4,55.3c0-16.4,0-32.8,0-49.2c-11.6,0-23.1,0-34.8,0c0,17,0,33.8,0,50.6l0,63.3c0,14.8,0,29.5,0,44.3
	c33.3,0,66.5,0,99.7,0c0-10.7,0-21.3,0-32.3c-21.8,0-43.2,0-64.9,0c0-4.2,0-8.3,0-12.5L191.4,55.3z"/>
<path d="M307.2,102.7c18.7,0,37.2,0,55.9,0c0-11.7,0-23.2,0-34.8c-18.6,0-37,0-55.5,0l-1.1-0.8l0-6.6c0-7.4,0-14.7,0-22.2
	c25.7,0,51.2,0,76.7,0c0-10.9,0-21.4,0-32.1c-37.3,0-74.5,0-111.8,0c0,18.3,0,36.6,0,54.8l0,46.4c0,19.1,0,38,0,57
	c37.3,0,74.5,0,111.8,0c0-10.8,0-21.4,0-32.3c-25.7,0-51.2,0-76.9,0c0-7.6,0-15.1,0-22.5l0-6L307.2,102.7z"/>
<g>
	<path d="M395.9,61.2c-2.1,7.5-3.3,15.5-3.3,23.7c0,8.4,1.2,16.5,3.4,24.1l0.4,2.7c3.5,12.4,9.5,23.7,19.1,32.8
		c24.8,23.3,54.2,28.9,86.6,20.7c12.1-3.1,22.3-9.7,30.5-19.8c-9.1-7.4-18-14.7-27-22c-10.2,11.5-23.1,14.6-37.4,12.3
		c-16-2.6-26.7-11.6-33.2-25.2l-1.5-3.7c-3.1-6.9-4.8-14.2-4.8-21.8c0-7.8,1.8-15.3,5-22.3l2-4c7.5-14.5,21.2-23.4,37.6-24.1
		c10.8-0.5,20.7,2,28.9,9.5c1.1,1,2,2.3,3.1,3.5c9.3-7.6,18.2-14.8,27.2-22.1c-0.6-0.7-1-1.3-1.4-1.8c-8.5-9.9-19.4-15.8-31.9-18.9
		c-5.3-1.3-10.8-1.9-16.1-2.8c-3.2,0-6.5,0-9.7,0c-0.9,0.2-1.7,0.4-2.6,0.5c-5.1,0.8-10.4,1.1-15.4,2.3
		c-29.1,7.2-48.6,24.1-57.8,51.5l-1.3,4.1C396.1,60.5,396,60.8,395.9,61.2"/>
</g>
<path d="M36.1,99.7c0.3,0.2,0.6,0.5,0.9,0.8c19.4,20.7,38.9,41.4,58.3,62.2c1.3,1.4,2.6,1.9,4.4,1.9c13.4-0.1,26.8,0,40.2,0
	c0.8,0,1.7-0.1,3-0.2c-25.5-26.6-50.7-52.8-76-79.1C92.4,58.9,117.5,32.7,143.1,6c-15.1,0-29.3,0-43.5,0c-1.9,0-3.1,0.6-4.4,1.9
	C75.8,28.6,56.4,49.3,37,70c-0.4,0.5-0.9,0.8-1.4,1.1l-0.3-0.7c0-21.4,0-42.8,0-64.3c-11.7,0-23.3,0-35,0c0,52.9,0,105.2,0,158.1
	c11.7,0,23.3,0,35,0c0-21.4,0-42.8,0-64.1L36.1,99.7z"/>
</svg>
